Coordinates
version=1
nRows=11
nColumns=42
inDegrees=yes

Units are S.I. units (second, meters, Newtons, ...)
If the header above contains a line with 'inDegrees', this indicates whether rotational values are in degrees (yes) or radians (no).

endheader
time	pelvis_tilt	pelvis_list	pelvis_rotation	pelvis_tx	pelvis_ty	pelvis_tz	hip_flexion_r	hip_adduction_r	hip_rotation_r	knee_angle_r	knee_adduction_r	knee_angle_r_beta	ankle_angle_r	subtalar_angle_r	mtp_angle_r	hip_flexion_l	hip_adduction_l	hip_rotation_l	knee_angle_l	knee_adduction_l	knee_angle_l_beta	ankle_angle_l	subtalar_angle_l	mtp_angle_l	lumbar_extension	lumbar_bending	lumbar_rotation	arm_flex_r	arm_add_r	arm_rot_r	elbow_flex_r	pro_sup_r	wrist_flex_r	wrist_dev_r	arm_flex_l	arm_add_l	arm_rot_l	elbow_flex_l	pro_sup_l	wrist_flex_l	wrist_dev_l
      0.30000000	      2.53073843	      1.31856474	      5.33964594	     -1.45708882	      0.90172870	     -0.12442727	     23.98817729	     -3.31410506	    -16.50032568	     11.49074110	      2.14862036	      0.20055127	     -5.42986050	      0.70772210	     -9.31169541	    -18.99124203	     -0.35782331	     12.11393450	      7.02553289	      6.56001496	      0.12261868	     10.56551883	    -16.92908779	     -9.31169541	    -16.11660646	      0.89394216	    -11.27970188	    -13.06801305	     -8.29457590	     -1.29916006	     23.86679258	     90.00000001	      0.00000000	      0.00000000	      9.51306819	    -22.46187863	      6.96368825	     56.11428865	     90.00000001	      0.00000000	      0.00000000
      0.31000000	      2.40890007	      1.11250146	      5.17880921	     -1.44533290	      0.90121703	     -0.12370815	     24.03578930	     -2.97188636	    -13.82149484	     12.39552804	      2.44686779	      0.21634278	     -6.98636434	     -3.97218789	     -9.16494966	    -19.20068663	     -0.66386646	     12.35718502	      7.81963527	      6.79897164	      0.13647838	      9.98446303	    -17.36860791	     -9.16494966	    -16.00486720	      1.25428204	    -11.30249284	    -12.23306001	     -8.34288300	     -1.19718790	     23.19778223	     90.00000001	      0.00000000	      0.00000000	      8.99990395	    -22.01149343	      6.34994176	     55.53036588	     90.00000001	      0.00000000	      0.00000000
      0.32000000	      2.41518953	      0.89742082	      5.02613891	     -1.43322160	      0.90126515	     -0.12292006	     24.14550670	     -2.78104380	    -12.75293815	     13.91550554	      2.62425988	      0.24287139	     -7.34859380	     -5.11207754	     -9.13600669	    -19.43087701	     -1.03382217	     12.22780880	      8.82855346	      7.12670837	      0.15408733	      9.37649788	    -17.49019132	     -9.13600669	    -16.00179036	      1.63357072	    -11.30456363	    -11.69970772	     -8.45158980	     -1.18010321	     23.23625810	     90.00000001	      0.00000000	      0.00000000	      8.32657933	    -21.79589905	      6.30162429	     55.07993340	     90.00000001	      0.00000000	      0.00000000
      0.33000000	      2.26115064	      0.66188709	      4.79230156	     -1.42127533	      0.90187682	     -0.12206636	     23.87943164	     -2.43783717	     -8.52309417	     14.48251771	      3.51660685	      0.25276762	     -9.90127724	    -13.03268299	     -9.02339989	    -19.38049606	     -1.35955401	     12.41557425	      9.97398606	      7.50693345	      0.17407890	      7.98697749	    -18.06993838	     -9.02339989	    -15.83880171	      2.01992906	    -11.28264978	    -10.60310757	     -8.50592983	     -1.18544805	     22.11336654	     90.00000001	      0.00000000	      0.00000000	      7.72749918	    -20.97278509	      5.17369421	     53.97094614	     90.00000001	      0.00000000	      0.00000000
      0.34000000	      2.29361443	      0.41093016	      4.56814713	     -1.40899510	      0.90302893	     -0.12117488	     23.61344820	     -2.23841601	     -6.60615938	     15.53261881	      4.17823392	      0.27109534	    -10.78192859	    -15.62202643	     -8.93942186	    -19.41269744	     -1.74936598	     12.28723180	     11.30434905	      7.96916831	      0.19729811	      6.78688521	    -18.20627150	     -8.93942186	    -15.86897055	      2.45209367	    -11.23008126	     -9.90922497	     -8.61236324	     -1.43712998	     22.15923704	     90.00000001	      0.00000000	      0.00000000	      6.98649427	    -20.61326634	      4.97050889	     53.30102452	     90.00000001	      0.00000000	      0.00000000
      0.35000000	      2.38894233	      0.21861813	      4.38016559	     -1.39643107	      0.90461503	     -0.12027023	     23.25815129	     -2.16565688	     -5.84313545	     16.66440339	      4.69733441	      0.29084871	    -10.53033563	    -16.33812702	     -8.91381975	    -19.36157439	     -2.10375179	     12.00896348	     12.88395860	      8.46315360	      0.22486750	      5.10302773	    -18.39899479	     -8.91381975	    -15.92826676	      2.80319343	    -11.23136797	     -9.27660050	     -8.72905444	     -1.48593150	     22.29155462	     90.00000001	      0.00000000	      0.00000000	      6.12058250	    -20.30688298	      4.93809687	     52.63768052	     90.00000001	      0.00000000	      0.00000000
      0.36000000	      2.45519973	      0.08600979	      4.11723902	     -1.38384287	      0.90657922	     -0.11929407	     22.72278894	     -2.11067175	     -4.99208495	     17.38693578	      5.26375302	      0.30345928	    -10.44355985	    -17.11219366	     -8.89298334	    -19.15313717	     -2.36767093	     11.71813672	     14.62828159	      9.00666996	      0.25531168	      3.06586516	    -18.62300290	     -8.89298334	    -15.96377516	      3.06949740	    -11.14124049	     -8.57741576	     -8.85322901	     -1.57965714	     22.36122247	     90.00000001	      0.00000000	      0.00000000	      5.29304219	    -19.91776195	      4.80599032	     51.80841764	     90.00000001	      0.00000000	      0.00000000
      0.37000000	      2.54180283	      0.01812833	      3.84760263	     -1.37113023	      0.90887160	     -0.11825219	     21.98120251	     -2.06915386	     -4.53691395	     17.80243390	      5.68502383	      0.31071109	    -10.11347397	    -17.50480603	     -8.87520739	    -18.77819374	     -2.57887217	     11.30620606	     16.62605152	      9.58441127	      0.29017934	      0.82737742	    -18.78916322	     -8.87520739	    -15.98964428	      3.23974034	    -11.03646304	     -7.95431698	     -8.94701152	     -1.71513514	     22.52677418	     90.00000001	      0.00000000	      0.00000000	      4.40302669	    -19.51733649	      4.71784132	     50.90542134	     90.00000001	      0.00000000	      0.00000000
      0.38000000	      2.69468670	     -0.03219845	      3.57025565	     -1.35855298	      0.91142945	     -0.11708463	     21.07061414	     -2.01388095	     -4.34423700	     18.04444518	      6.06508318	      0.31493498	     -9.68235316	    -17.58392814	     -8.86353477	    -18.30906976	     -2.80651608	     11.13588535	     18.77059458	     10.28394453	      0.32760868	     -1.29301138	    -18.92815537	     -8.86353477	    -16.11869190	      3.36775187	    -10.89957110	     -7.29597536	     -9.06068467	     -1.84859070	     22.83236761	     90.00000001	      0.00000000	      0.00000000	      3.57613109	    -19.19523111	      4.72484242	     50.09090377	     90.00000001	      0.00000000	      0.00000000
      0.39000000	      2.67338289	      0.02218467	      3.16494670	     -1.34592507	      0.91395834	     -0.11584807	     20.25253446	     -1.95881059	     -4.29469236	     18.07752749	      6.22506772	      0.31551238	     -8.92831787	    -17.38380985	     -8.83485073	    -17.33330446	     -2.80037975	      9.86563252	     21.51729525	     10.56019242	      0.37554765	     -4.14627373	    -18.99478954	     -8.83485073	    -16.01323026	      3.34687479	    -10.49666781	     -6.83913715	     -9.15827946	     -2.22461895	     23.22163888	     90.00000001	      0.00000000	      0.00000000	      2.90137505	    -18.64855624	      4.62861986	     48.75231003	     90.00000001	      0.00000000	      0.00000000
      0.40000000	      2.72198755	      0.04602232	      2.89474941	     -1.33338060	      0.91667420	     -0.11463358	     19.20957574	     -1.84521028	     -4.54567514	     17.85110064	      6.25632678	      0.31156048	     -8.21493101	    -17.10103473	     -8.81465014	    -16.32295634	     -2.88849371	      9.25159761	     24.21364421	     10.91694129	      0.42260782	     -6.47939400	    -19.08234239	     -8.81465014	    -15.98495227	      3.37098248	    -10.25877058	     -6.35702179	     -9.25484477	     -2.52462500	     23.72717159	     90.00000001	      0.00000000	      0.00000000	      2.06455899	    -18.23471715	      4.74544341	     47.66607370	     90.00000001	      0.00000000	      0.00000000
